<?xml version="1.0" encoding="UTF-8"?>
<svg id="Layer_2" data-name="Layer 2" xmlns="http://www.w3.org/2000/svg" viewBox="0 0 62.64 62.64">
  <defs>
    <style>
      .cls-1 {
        fill: #06628a;
      }

      .cls-2 {
        fill: #fff;
      }

      .cls-3 {
        fill: #054f8a;
      }

      .cls-4 {
        fill: #f26b3b;
      }
    </style>
  </defs>
  <g id="Layer_1-2" data-name="Layer 1">
    <rect class="cls-1" width="62.64" height="62.64" rx="5.94" ry="5.94"/>
    <g>
      <path class="cls-2" d="M31.16,30.38c2.48,0,4.82.62,7.01,1.86,2.19,1.24,3.89,2.93,5.12,5.06,1.23,2.13,1.84,4.43,1.84,6.9s-.62,4.81-1.85,6.97c-1.23,2.16-2.92,3.85-5.05,5.07-2.13,1.22-4.48,1.83-7.04,1.83-3.78,0-7-1.34-9.67-4.03-2.67-2.69-4-5.95-4-9.79,0-4.12,1.51-7.54,4.53-10.29,2.65-2.39,5.69-3.58,9.12-3.58ZM31.27,34.33c-2.66,0-4.88.92-6.65,2.78-1.77,1.85-2.65,4.22-2.65,7.1s.87,5.37,2.62,7.21c1.75,1.84,3.96,2.76,6.64,2.76s4.91-.93,6.69-2.79c1.78-1.86,2.67-4.26,2.67-7.18s-.87-5.31-2.62-7.14c-1.75-1.83-3.99-2.75-6.71-2.75Z"/>
      <g>
        <path class="cls-4" d="M30.53,4.59c10.76-.5,19.72,9,17.29,19.8-.53,2.34-1.67,4.48-2.84,6.55-3.98,7.05-9.24,13.38-13.8,20.05-3.88-5.5-8.04-10.83-11.6-16.55-2.04-3.28-4.37-7.14-4.96-11-1.53-9.94,6.07-18.4,15.91-18.85ZM44.53,21.77c0-7.3-5.91-13.21-13.21-13.21s-13.21,5.91-13.21,13.21,5.91,13.21,13.21,13.21,13.21-5.91,13.21-13.21Z"/>
        <path class="cls-2" d="M44.53,21.77c0,7.3-5.91,13.21-13.21,13.21s-13.21-5.91-13.21-13.21,5.91-13.21,13.21-13.21,13.21,5.91,13.21,13.21ZM22.52,23.23v-7.11c0-.39-1.03-.7-1.15.1v10.93c.09,1.03,1.15.55,1.15.28v-2.95h17.61v2.95c0,.3,1.02.62,1.16-.1-.15-2.11.21-4.51,0-6.58-.1-1.03-1.17-.55-1.17-.28v2.76h-17.61ZM27.01,20.13c0-.98-.79-1.77-1.77-1.77s-1.77.79-1.77,1.77.79,1.77,1.77,1.77,1.77-.79,1.77-1.77ZM38.77,21.98v-2.08c0-.36-1.04-1.4-1.4-1.4h-8.85v3.48h10.25Z"/>
        <path class="cls-3" d="M22.52,23.23h17.61v-2.76c0-.27,1.07-.74,1.17.28.2,2.07-.16,4.47,0,6.58-.13.72-1.16.4-1.16.1v-2.95h-17.61v2.95c0,.27-1.07.74-1.17-.28v-10.93c.14-.8,1.17-.49,1.17-.1v7.11Z"/>
        <path class="cls-3" d="M38.77,21.98h-10.25v-3.48h8.85c.36,0,1.4,1.05,1.4,1.4v2.08Z"/>
        <circle class="cls-3" cx="25.23" cy="20.13" r="1.77"/>
      </g>
    </g>
  </g>
</svg>