<?xml version="1.0" encoding="UTF-8"?>
<svg id="Layer_2" data-name="Layer 2" xmlns="http://www.w3.org/2000/svg" viewBox="0 0 179.1 35.81">
  <defs>
    <style>
      .cls-1 {
        fill: #fff;
      }

      .cls-2 {
        fill: #054f8a;
      }

      .cls-3 {
        isolation: isolate;
      }

      .cls-4 {
        fill: #f26b3b;
      }

      .cls-5 {
        fill: #06628a;
        font-family: CenturyGothic, 'Century Gothic';
        font-size: 7.69px;
      }
    </style>
  </defs>
  <g id="Layer_1-2" data-name="Layer 1">
    <g>
      <g id="Layer_1-2" data-name="Layer 1-2">
        <g class="cls-3">
          <path class="cls-2" d="M15.69,17.75H3.63c.17,1.06.64,1.91,1.4,2.54.76.63,1.72.94,2.9.94,1.4,0,2.61-.49,3.62-1.47l3.16,1.49c-.79,1.12-1.73,1.95-2.83,2.48-1.1.54-2.41.8-3.92.8-2.35,0-4.26-.74-5.74-2.22-1.48-1.48-2.21-3.34-2.21-5.56s.74-4.18,2.21-5.69c1.47-1.51,3.32-2.26,5.54-2.26,2.36,0,4.27.75,5.75,2.26,1.48,1.51,2.21,3.5,2.21,5.98v.72ZM11.94,14.8c-.25-.83-.74-1.51-1.47-2.04s-1.58-.78-2.54-.78c-1.05,0-1.97.29-2.76.88-.5.37-.95,1.01-1.38,1.94h8.14Z"/>
          <path class="cls-2" d="M18.75,3.41h3.73v7.29c.73-.63,1.47-1.11,2.21-1.42s1.49-.47,2.26-.47c1.49,0,2.74.51,3.76,1.54.87.89,1.31,2.2,1.31,3.92v9.89h-3.7v-6.56c0-1.73-.08-2.91-.25-3.52-.17-.61-.45-1.07-.85-1.38s-.89-.45-1.48-.45c-.76,0-1.42.25-1.96.76-.55.51-.92,1.19-1.14,2.06-.11.45-.16,1.48-.16,3.08v6.01h-3.73V3.41Z"/>
          <path class="cls-2" d="M43.42,11.87c1.14,0,2.22.29,3.22.86s1.79,1.35,2.35,2.33c.56.98.85,2.04.85,3.17s-.28,2.21-.85,3.21-1.34,1.77-2.32,2.33c-.98.56-2.06.84-3.24.84-1.74,0-3.22-.62-4.45-1.85-1.23-1.24-1.84-2.74-1.84-4.5,0-1.89.69-3.47,2.08-4.73,1.22-1.1,2.62-1.65,4.2-1.65ZM43.47,13.69c-1.22,0-2.24.42-3.06,1.28-.81.85-1.22,1.94-1.22,3.27s.4,2.47,1.21,3.32c.8.85,1.82,1.27,3.06,1.27s2.26-.43,3.08-1.28c.82-.86,1.23-1.96,1.23-3.31s-.4-2.44-1.21-3.28-1.83-1.26-3.09-1.26Z"/>
          <path class="cls-2" d="M62.83,11.27l-2.32,2.33c-.95-.94-1.8-1.4-2.57-1.4-.42,0-.75.09-.99.27s-.36.4-.36.67c0,.2.07.39.23.56.15.17.52.4,1.12.69l1.37.69c1.45.72,2.44,1.44,2.98,2.19.54.74.81,1.61.81,2.61,0,1.33-.49,2.44-1.47,3.33-.98.89-2.29,1.33-3.93,1.33-2.18,0-3.92-.85-5.23-2.56l2.31-2.52c.44.51.96.93,1.55,1.25.59.32,1.12.47,1.58.47.49,0,.89-.12,1.2-.36s.45-.51.45-.83c0-.58-.55-1.14-1.64-1.69l-1.27-.63c-2.42-1.22-3.63-2.75-3.63-4.58,0-1.18.46-2.19,1.37-3.03s2.08-1.26,3.5-1.26c.97,0,1.89.21,2.74.64.86.43,1.58,1.04,2.18,1.84Z"/>
          <path class="cls-2" d="M66.52,3.67h3.76v5.52h2.23v3.23h-2.23v11.73h-3.76v-11.73h-1.93v-3.23h1.93V3.67Z"/>
          <path class="cls-2" d="M89.5,17.75h-12.06c.17,1.06.64,1.91,1.4,2.54.76.63,1.72.94,2.9.94,1.4,0,2.61-.49,3.62-1.47l3.16,1.49c-.79,1.12-1.73,1.95-2.83,2.48-1.1.54-2.41.8-3.92.8-2.35,0-4.26-.74-5.74-2.22s-2.21-3.34-2.21-5.56.74-4.18,2.21-5.69c1.47-1.51,3.32-2.26,5.54-2.26,2.36,0,4.27.75,5.75,2.26,1.48,1.51,2.21,3.5,2.21,5.98v.72ZM85.75,14.8c-.25-.83-.74-1.51-1.47-2.04s-1.58-.78-2.54-.78c-1.05,0-1.97.29-2.76.88-.5.37-.95,1.01-1.38,1.94h8.14Z"/>
          <path class="cls-2" d="M92.13,3.41h3.75v20.74h-3.75V3.41Z"/>
          <path class="cls-2" d="M98.66,9.18h11.46l-6.72,11.79h6.34v3.18h-12.1l6.75-11.79h-5.72v-3.18Z"/>
          <path class="cls-2" d="M114.3,20.23c.6,0,1.1.21,1.53.63s.63.92.63,1.52-.21,1.1-.63,1.53-.93.63-1.53.63-1.1-.21-1.53-.63c-.42-.42-.63-.93-.63-1.53s.21-1.1.63-1.52c.42-.42.93-.63,1.53-.63Z"/>
          <path class="cls-2" d="M134.78,12.21l-3.12,1.72c-.59-.61-1.17-1.04-1.74-1.28-.57-.24-1.25-.36-2.02-.36-1.4,0-2.54.42-3.41,1.26-.87.84-1.3,1.91-1.3,3.22s.42,2.31,1.25,3.12c.84.81,1.93,1.21,3.29,1.21,1.68,0,2.99-.57,3.92-1.72l2.96,2.03c-1.6,2.09-3.87,3.13-6.8,3.13-2.63,0-4.69-.78-6.18-2.34-1.49-1.56-2.24-3.38-2.24-5.48,0-1.45.36-2.78,1.09-4,.72-1.22,1.74-2.18,3.03-2.87,1.3-.7,2.75-1.05,4.35-1.05,1.49,0,2.82.3,4,.89,1.18.59,2.15,1.43,2.9,2.52Z"/>
          <path class="cls-2" d="M145.19,8.8c1.41,0,2.74.35,3.98,1.06s2.21,1.66,2.91,2.87c.7,1.21,1.05,2.52,1.05,3.92s-.35,2.73-1.05,3.96-1.66,2.19-2.87,2.88c-1.21.69-2.54,1.04-4,1.04-2.15,0-3.98-.76-5.5-2.29-1.52-1.53-2.28-3.38-2.28-5.56,0-2.34.86-4.29,2.57-5.85,1.5-1.36,3.23-2.04,5.19-2.04ZM145.26,12.33c-1.17,0-2.14.41-2.91,1.22-.78.81-1.16,1.85-1.16,3.11s.38,2.36,1.15,3.16c.77.81,1.74,1.21,2.91,1.21s2.15-.41,2.93-1.22c.78-.82,1.17-1.87,1.17-3.15s-.38-2.33-1.15-3.13-1.75-1.2-2.94-1.2Z"/>
          <path class="cls-2" d="M156.17,9.18h3.76v1.72c.64-.71,1.36-1.23,2.14-1.58s1.64-.52,2.57-.52,1.78.23,2.53.69c.75.46,1.36,1.13,1.82,2.01.6-.88,1.33-1.55,2.2-2.01.87-.46,1.81-.69,2.84-.69s2,.25,2.81.74,1.39,1.14,1.74,1.94.53,2.1.53,3.89v8.78h-3.78v-7.59c0-1.7-.21-2.85-.63-3.45-.42-.6-1.05-.9-1.9-.9-.64,0-1.22.18-1.73.55s-.89.87-1.14,1.52c-.25.65-.37,1.68-.37,3.11v6.75h-3.78v-7.25c0-1.34-.1-2.31-.3-2.91-.2-.6-.49-1.05-.89-1.34-.39-.29-.87-.44-1.43-.44-.63,0-1.19.19-1.7.56-.51.37-.89.89-1.14,1.56-.25.67-.38,1.72-.38,3.16v6.66h-3.76v-14.97Z"/>
          <g>
            <path class="cls-4" d="M43.13,0c4.95-.23,9.07,4.14,7.95,9.11-.24,1.08-.77,2.06-1.31,3.01-1.83,3.25-4.25,6.16-6.35,9.23-1.78-2.53-3.7-4.98-5.34-7.61-.94-1.51-2.01-3.29-2.28-5.06C35.1,4.11,38.6.22,43.13,0ZM49.57,7.91c0-3.36-2.72-6.08-6.08-6.08s-6.08,2.72-6.08,6.08,2.72,6.08,6.08,6.08,6.08-2.72,6.08-6.08Z"/>
            <path class="cls-1" d="M49.57,7.91c0,3.36-2.72,6.08-6.08,6.08s-6.08-2.72-6.08-6.08,2.72-6.08,6.08-6.08,6.08,2.72,6.08,6.08ZM39.45,8.59v-3.27c0-.18-.47-.32-.53.05v5.03c.04.47.53.25.53.13v-1.36h8.1v1.36c0,.14.47.28.53-.05-.07-.97.1-2.07,0-3.03-.05-.47-.54-.25-.54-.13v1.27h-8.1ZM41.51,7.16c0-.45-.36-.82-.82-.82s-.82.36-.82.82.36.82.82.82.82-.36.82-.82ZM46.92,8.01v-.96c0-.16-.48-.65-.65-.65h-4.07v1.6h4.72Z"/>
            <path class="cls-2" d="M39.45,8.59h8.1v-1.27c0-.12.49-.34.54.13.09.95-.07,2.06,0,3.03-.06.33-.53.18-.53.05v-1.36h-8.1v1.36c0,.12-.49.34-.54-.13v-5.03c.06-.37.54-.23.54-.05v3.27Z"/>
            <path class="cls-2" d="M46.92,8.01h-4.72v-1.6h4.07c.17,0,.65.48.65.65v.96Z"/>
            <circle class="cls-2" cx="40.69" cy="7.16" r=".82"/>
          </g>
        </g>
      </g>
      <text class="cls-5" transform="translate(3.2 33.45)"><tspan x="0" y="0">Find Faster, Manage Smarter</tspan></text>
    </g>
  </g>
</svg>